<svg viewBox="0 0 330 200" xmlns="http://www.w3.org/2000/svg"><g><g><g><g><g><line x1="48.8125" y1="177" x2="43.8125" y2="177" style="visibility: inherit;" fill="rgb(0, 0, 0)" stroke="rgb(204, 204, 204)" stroke-width="1px"></line><line x1="48.8125" y1="163.3846153846154" x2="43.8125" y2="163.3846153846154" style="visibility: inherit;" fill="rgb(0, 0, 0)" stroke="rgb(204, 204, 204)" stroke-width="1px"></line><line x1="48.8125" y1="149.76923076923077" x2="43.8125" y2="149.76923076923077" style="visibility: inherit;" fill="rgb(0, 0, 0)" stroke="rgb(204, 204, 204)" stroke-width="1px"></line><line x1="48.8125" y1="136.15384615384616" x2="43.8125" y2="136.15384615384616" style="visibility: inherit;" fill="rgb(0, 0, 0)" stroke="rgb(204, 204, 204)" stroke-width="1px"></line><line x1="48.8125" y1="122.53846153846153" x2="43.8125" y2="122.53846153846153" style="visibility: inherit;" fill="rgb(0, 0, 0)" stroke="rgb(204, 204, 204)" stroke-width="1px"></line><line x1="48.8125" y1="108.92307692307693" x2="43.8125" y2="108.92307692307693" style="visibility: inherit;" fill="rgb(0, 0, 0)" stroke="rgb(204, 204, 204)" stroke-width="1px"></line><line x1="48.8125" y1="95.3076923076923" x2="43.8125" y2="95.3076923076923" style="visibility: inherit;" fill="rgb(0, 0, 0)" stroke="rgb(204, 204, 204)" stroke-width="1px"></line><line x1="48.8125" y1="81.6923076923077" x2="43.8125" y2="81.6923076923077" style="visibility: inherit;" fill="rgb(0, 0, 0)" stroke="rgb(204, 204, 204)" stroke-width="1px"></line><line x1="48.8125" y1="68.0769230769231" x2="43.8125" y2="68.0769230769231" style="visibility: inherit;" fill="rgb(0, 0, 0)" stroke="rgb(204, 204, 204)" stroke-width="1px"></line><line x1="48.8125" y1="54.46153846153847" x2="43.8125" y2="54.46153846153847" style="visibility: inherit;" fill="rgb(0, 0, 0)" stroke="rgb(204, 204, 204)" stroke-width="1px"></line><line x1="48.8125" y1="40.84615384615387" x2="43.8125" y2="40.84615384615387" style="visibility: inherit;" fill="rgb(0, 0, 0)" stroke="rgb(204, 204, 204)" stroke-width="1px"></line><line x1="48.8125" y1="27.230769230769226" x2="43.8125" y2="27.230769230769226" style="visibility: inherit;" fill="rgb(0, 0, 0)" stroke="rgb(204, 204, 204)" stroke-width="1px"></line><line x1="48.8125" y1="13.615384615384613" x2="43.8125" y2="13.615384615384613" style="visibility: inherit;" fill="rgb(0, 0, 0)" stroke="rgb(204, 204, 204)" stroke-width="1px"></line><line x1="48.8125" y1="0" x2="43.8125" y2="0" style="visibility: inherit;" fill="rgb(0, 0, 0)" stroke="rgb(204, 204, 204)" stroke-width="1px"></line></g><g transform="translate(38.8125, 0)"><text x="0" y="177" dx="0em" dy="0.3em" style="text-anchor: end; visibility: hidden; font-family: &quot;Helvetica Neue&quot;, sans-serif; font-size: 12px; font-weight: 200;" fill="rgb(50, 49, 63)" stroke="none" stroke-width="1px">-0.1</text><text x="0" y="163.3846153846154" dx="0em" dy="0.3em" style="text-anchor: end; visibility: inherit; font-family: &quot;Helvetica Neue&quot;, sans-serif; font-size: 12px; font-weight: 200;" fill="rgb(50, 49, 63)" stroke="none" stroke-width="1px">0</text><text x="0" y="149.76923076923077" dx="0em" dy="0.3em" style="text-anchor: end; visibility: hidden; font-family: &quot;Helvetica Neue&quot;, sans-serif; font-size: 12px; font-weight: 200;" fill="rgb(50, 49, 63)" stroke="none" stroke-width="1px">0.1</text><text x="0" y="136.15384615384616" dx="0em" dy="0.3em" style="text-anchor: end; visibility: inherit; font-family: &quot;Helvetica Neue&quot;, sans-serif; font-size: 12px; font-weight: 200;" fill="rgb(50, 49, 63)" stroke="none" stroke-width="1px">0.2</text><text x="0" y="122.53846153846153" dx="0em" dy="0.3em" style="text-anchor: end; visibility: hidden; font-family: &quot;Helvetica Neue&quot;, sans-serif; font-size: 12px; font-weight: 200;" fill="rgb(50, 49, 63)" stroke="none" stroke-width="1px">0.3</text><text x="0" y="108.92307692307693" dx="0em" dy="0.3em" style="text-anchor: end; visibility: inherit; font-family: &quot;Helvetica Neue&quot;, sans-serif; font-size: 12px; font-weight: 200;" fill="rgb(50, 49, 63)" stroke="none" stroke-width="1px">0.4</text><text x="0" y="95.3076923076923" dx="0em" dy="0.3em" style="text-anchor: end; visibility: hidden; font-family: &quot;Helvetica Neue&quot;, sans-serif; font-size: 12px; font-weight: 200;" fill="rgb(50, 49, 63)" stroke="none" stroke-width="1px">0.5</text><text x="0" y="81.6923076923077" dx="0em" dy="0.3em" style="text-anchor: end; visibility: inherit; font-family: &quot;Helvetica Neue&quot;, sans-serif; font-size: 12px; font-weight: 200;" fill="rgb(50, 49, 63)" stroke="none" stroke-width="1px">0.6</text><text x="0" y="68.0769230769231" dx="0em" dy="0.3em" style="text-anchor: end; visibility: hidden; font-family: &quot;Helvetica Neue&quot;, sans-serif; font-size: 12px; font-weight: 200;" fill="rgb(50, 49, 63)" stroke="none" stroke-width="1px">0.7</text><text x="0" y="54.46153846153847" dx="0em" dy="0.3em" style="text-anchor: end; visibility: inherit; font-family: &quot;Helvetica Neue&quot;, sans-serif; font-size: 12px; font-weight: 200;" fill="rgb(50, 49, 63)" stroke="none" stroke-width="1px">0.8</text><text x="0" y="40.84615384615387" dx="0em" dy="0.3em" style="text-anchor: end; visibility: hidden; font-family: &quot;Helvetica Neue&quot;, sans-serif; font-size: 12px; font-weight: 200;" fill="rgb(50, 49, 63)" stroke="none" stroke-width="1px">0.9</text><text x="0" y="27.230769230769226" dx="0em" dy="0.3em" style="text-anchor: end; visibility: inherit; font-family: &quot;Helvetica Neue&quot;, sans-serif; font-size: 12px; font-weight: 200;" fill="rgb(50, 49, 63)" stroke="none" stroke-width="1px">1</text><text x="0" y="13.615384615384613" dx="0em" dy="0.3em" style="text-anchor: end; visibility: hidden; font-family: &quot;Helvetica Neue&quot;, sans-serif; font-size: 12px; font-weight: 200;" fill="rgb(50, 49, 63)" stroke="none" stroke-width="1px">1.1</text><text x="0" y="0" dx="0em" dy="0.3em" style="text-anchor: end; visibility: hidden; font-family: &quot;Helvetica Neue&quot;, sans-serif; font-size: 12px; font-weight: 200;" fill="rgb(50, 49, 63)" stroke="none" stroke-width="1px">1.2</text></g><line x1="48.8125" y1="0" x2="48.8125" y2="177" fill="rgb(0, 0, 0)" stroke="rgb(204, 204, 204)" stroke-width="1px"></line></g></g><g transform="translate(48, 0)" clip-path="url(#clip_0)"><clipPath id="clip_0"><rect width="281" height="177"></rect></clipPath><g><g><g><line x1="0" y1="0" x2="0" y2="177" fill="rgb(0, 0, 0)" stroke="rgb(60, 60, 60)" stroke-width="1px" opacity="0.25"></line><line x1="21.629807692307693" y1="0" x2="21.629807692307693" y2="177" fill="rgb(0, 0, 0)" stroke="rgb(60, 60, 60)" stroke-width="1px" opacity="0.25"></line><line x1="43.25961538461539" y1="0" x2="43.25961538461539" y2="177" fill="rgb(0, 0, 0)" stroke="rgb(60, 60, 60)" stroke-width="1px" opacity="0.25"></line><line x1="64.88942307692308" y1="0" x2="64.88942307692308" y2="177" fill="rgb(0, 0, 0)" stroke="rgb(60, 60, 60)" stroke-width="1px" opacity="0.25"></line><line x1="86.51923076923077" y1="0" x2="86.51923076923077" y2="177" fill="rgb(0, 0, 0)" stroke="rgb(60, 60, 60)" stroke-width="1px" opacity="0.25"></line><line x1="108.14903846153847" y1="0" x2="108.14903846153847" y2="177" fill="rgb(0, 0, 0)" stroke="rgb(60, 60, 60)" stroke-width="1px" opacity="0.25"></line><line x1="129.77884615384616" y1="0" x2="129.77884615384616" y2="177" fill="rgb(0, 0, 0)" stroke="rgb(60, 60, 60)" stroke-width="1px" opacity="0.25"></line><line x1="151.40865384615384" y1="0" x2="151.40865384615384" y2="177" fill="rgb(0, 0, 0)" stroke="rgb(60, 60, 60)" stroke-width="1px" opacity="0.25"></line><line x1="173.03846153846155" y1="0" x2="173.03846153846155" y2="177" fill="rgb(0, 0, 0)" stroke="rgb(60, 60, 60)" stroke-width="1px" opacity="0.25"></line><line x1="194.66826923076923" y1="0" x2="194.66826923076923" y2="177" fill="rgb(0, 0, 0)" stroke="rgb(60, 60, 60)" stroke-width="1px" opacity="0.25"></line><line x1="216.29807692307693" y1="0" x2="216.29807692307693" y2="177" fill="rgb(0, 0, 0)" stroke="rgb(60, 60, 60)" stroke-width="1px" opacity="0.25"></line><line x1="237.9278846153846" y1="0" x2="237.9278846153846" y2="177" fill="rgb(0, 0, 0)" stroke="rgb(60, 60, 60)" stroke-width="1px" opacity="0.25"></line><line x1="259.5576923076923" y1="0" x2="259.5576923076923" y2="177" fill="rgb(0, 0, 0)" stroke="rgb(60, 60, 60)" stroke-width="1px" opacity="0.25"></line><line x1="281.1875" y1="0" x2="281.1875" y2="177" fill="rgb(0, 0, 0)" stroke="rgb(60, 60, 60)" stroke-width="1px" opacity="0.25"></line></g><g><line x1="0" y1="177" x2="281.1875" y2="177" fill="rgb(0, 0, 0)" stroke="rgb(60, 60, 60)" stroke-width="1px" opacity="0.25"></line><line x1="0" y1="163.3846153846154" x2="281.1875" y2="163.3846153846154" fill="rgb(0, 0, 0)" stroke="rgb(60, 60, 60)" stroke-width="1px" opacity="0.25"></line><line x1="0" y1="149.76923076923077" x2="281.1875" y2="149.76923076923077" fill="rgb(0, 0, 0)" stroke="rgb(60, 60, 60)" stroke-width="1px" opacity="0.25"></line><line x1="0" y1="136.15384615384616" x2="281.1875" y2="136.15384615384616" fill="rgb(0, 0, 0)" stroke="rgb(60, 60, 60)" stroke-width="1px" opacity="0.25"></line><line x1="0" y1="122.53846153846153" x2="281.1875" y2="122.53846153846153" fill="rgb(0, 0, 0)" stroke="rgb(60, 60, 60)" stroke-width="1px" opacity="0.25"></line><line x1="0" y1="108.92307692307693" x2="281.1875" y2="108.92307692307693" fill="rgb(0, 0, 0)" stroke="rgb(60, 60, 60)" stroke-width="1px" opacity="0.25"></line><line x1="0" y1="95.3076923076923" x2="281.1875" y2="95.3076923076923" fill="rgb(0, 0, 0)" stroke="rgb(60, 60, 60)" stroke-width="1px" opacity="0.25"></line><line x1="0" y1="81.6923076923077" x2="281.1875" y2="81.6923076923077" fill="rgb(0, 0, 0)" stroke="rgb(60, 60, 60)" stroke-width="1px" opacity="0.25"></line><line x1="0" y1="68.0769230769231" x2="281.1875" y2="68.0769230769231" fill="rgb(0, 0, 0)" stroke="rgb(60, 60, 60)" stroke-width="1px" opacity="0.25"></line><line x1="0" y1="54.46153846153847" x2="281.1875" y2="54.46153846153847" fill="rgb(0, 0, 0)" stroke="rgb(60, 60, 60)" stroke-width="1px" opacity="0.25"></line><line x1="0" y1="40.84615384615387" x2="281.1875" y2="40.84615384615387" fill="rgb(0, 0, 0)" stroke="rgb(60, 60, 60)" stroke-width="1px" opacity="0.25"></line><line x1="0" y1="27.230769230769226" x2="281.1875" y2="27.230769230769226" fill="rgb(0, 0, 0)" stroke="rgb(60, 60, 60)" stroke-width="1px" opacity="0.25"></line><line x1="0" y1="13.615384615384613" x2="281.1875" y2="13.615384615384613" fill="rgb(0, 0, 0)" stroke="rgb(60, 60, 60)" stroke-width="1px" opacity="0.25"></line><line x1="0" y1="0" x2="281.1875" y2="0" fill="rgb(0, 0, 0)" stroke="rgb(60, 60, 60)" stroke-width="1px" opacity="0.25"></line></g></g></g><g><g><line x1="0" y1="163.3846153846154" x2="281.1875" y2="163.3846153846154" fill="rgb(0, 0, 0)" stroke="rgb(153, 153, 153)" stroke-width="1.5px"></line></g></g><g><g><line x1="21.629807692307693" y1="0" x2="21.629807692307693" y2="177" fill="rgb(0, 0, 0)" stroke="rgb(153, 153, 153)" stroke-width="1.5px"></line></g></g><g><g><g><g><g><path stroke="rgb(51, 187, 238)" stroke-width="2px" d="M21.629807692307693,29.05660475217377L22.71129807692308,30.794644815417428L23.792788461538464,47.076493857793935L24.874278846153846,63.13582341895521L25.95576923076923,75.79627870696918L27.037259615384617,85.75762461180331L28.118750000000002,93.7851838639556L29.200240384615388,100.22337552912356L30.28173076923077,105.46699810750367L31.363221153846155,110.01013312637384L32.44471153846154,113.92857023310006L33.526201923076925,117.33438645414567L34.60769230769231,120.10388470748511L35.68918269230769,122.32353066053292L36.77067307692308,124.52654638656566L37.85216346153846,126.15541329445844L38.933653846153845,127.544023937889L40.01514423076923,128.6855538592242L41.096634615384616,129.89059328019098L42.178125,130.67729358762622L43.25961538461539,131.40719063086354L44.341105769230765,132.1569984105539L45.42259615384616,132.96700217673967L46.504086538461536,133.42754058380444L47.58557692307693,134.00235323295485L48.66706730769231,134.30969786454736L49.74855769230769,134.93283229632044L50.83004807692308,135.40117506870772L51.91153846153846,135.90344786671227L52.99302884615385,136.27382076013063L54.07451923076923,136.42849670085164L55.15600961538461,136.8399372918998L56.237500000000004,137.2819413364399L57.31899038461538,137.5446953329124L58.400480769230775,137.12251200768534L59.48197115384615,137.59668123496422L60.56346153846154,138.2058321087494L61.644951923076924,138.55482158440253L62.72644230769231,138.8330752635299L63.807932692307695,139.04303017238973L64.88942307692308,139.23764805384923L65.97091346153846,139.32582091879036L67.05240384615385,139.5010213057792L68.13389423076923,139.74902697992837L69.21538461538462,139.93843173877352L70.296875,140.1406809837428L71.37836538461538,140.16950845975475L72.45985576923076,140.2758787821667L73.54134615384616,140.62047682983686L74.62283653846154,140.83397063025276L75.70432692307692,141.12185348791013L76.7858173076923,141.1761129463581L77.86730769230769,141.18760509648362L78.94879807692308,141.44911462052983L80.03028846153846,141.52676126489104L81.11177884615384,141.6409335047822L82.19326923076923,141.67265866004814L83.27475961538461,141.8237808417559L84.35625,141.99982655289838L85.43774038461538,142.0288794843783L86.51923076923077,142.11119469087672L87.60072115384615,142.26834498692364L88.68221153846153,142.23548467481803L89.76370192307692,142.44209243142637L90.84519230769232,142.58973295812078L91.9266826923077,142.64407109077868L93.00817307692307,142.81733335766853L94.08966346153845,142.80369367887312L95.17115384615386,143.0444806552697L96.25264423076923,142.9906067443719L97.33413461538461,143.18329083509994L98.41562499999999,143.28436335904817L99.49711538461538,143.25914186642007L100.57860576923078,143.33398118260763L101.66009615384615,143.4531366395778L102.74158653846153,143.5392295213009L103.82307692307693,143.61831043861943L104.9045673076923,143.6759283987991L105.9860576923077,143.77432518568432L107.06754807692307,143.81458827613332L108.14903846153847,143.8650952164306L109.23052884615385,143.90462009994644L110.31201923076922,143.97029490266854L111.39350961538462,144.04135066221767L112.47500000000001,144.16031028186265L113.55649038461539,144.2451064933331L114.63798076923077,144.26425056520281L115.71947115384614,144.36047884373542L116.80096153846155,144.29823609000573L117.88245192307693,144.34502199497575L118.9639423076923,144.27636606587254L120.04543269230768,144.36208846303714L121.12692307692308,144.41820611115952L122.20841346153847,144.57112197703424L123.28990384615385,144.62162334466987L124.37139423076923,144.67827730897994L125.45288461538462,144.8780916891699L126.534375,144.76501797487492L127.61586538461539,144.74043938703352L128.69735576923077,144.6335467180065L129.77884615384616,144.6617741256763L130.86033653846155,144.83517226763655L131.94182692307692,144.90699057370202L133.0233173076923,144.98278094514842L134.1048076923077,145.08024973475028L135.1862980769231,145.1799523795752L136.26778846153846,145.16205276501367L137.34927884615385,145.2196536049836L138.43076923076924,145.18118036349327L139.5122596153846,145.27584765015945L140.59375,145.3871194094721L141.6752403846154,145.4307689896636L142.75673076923076,145.43985147113236L143.83822115384615,145.4873712020884L144.9197115384615,145.48644117507115L146.00120192307693,145.5013827644431L147.08269230769233,145.47531920998998L148.1641826923077,145.4573519570489L149.24567307692308,145.55709201398798L150.32716346153845,145.59848487099455L151.40865384615384,145.74084296243274L152.49014423076923,145.74991055333592L153.5716346153846,145.85439065788879L154.65312500000002,145.84593018294802L155.73461538461538,145.80387769351492L156.81610576923077,145.88103741074121L157.89759615384617,145.8850552447203L158.97908653846153,145.92365739023833L160.06057692307692,146.00288311820302L161.1420673076923,146.12454382197396L162.22355769230768,146.10842014964376L163.3050480769231,146.08779583481981L164.38653846153846,146.12081636805004L165.46802884615386,146.1590303611951L166.54951923076922,146.1328954734186L167.6310096153846,146.1271875578217L168.7125,146.229947969614L169.79399038461537,146.2252681121863L170.87548076923076,146.18561140506674L171.95697115384615,146.0915777681056L173.03846153846155,146.1437075751157L174.11995192307694,146.2251556837683L175.2014423076923,146.1640511183263L176.2829326923077,146.253745182515L177.36442307692306,146.27352562657185L178.44591346153845,146.36623587216113L179.52740384615385,146.35449241861346L180.60889423076924,146.42369744293524L181.69038461538463,146.48193696758574L182.771875,146.4907105409542L183.8533653846154,146.55902364604617L184.93485576923078,146.56471072930017L186.01634615384614,146.60956833540155L187.09783653846154,146.62434996784825L188.1793269230769,146.67980297578035L189.26081730769232,146.61156774266158L190.3423076923077,146.6306262016969L191.42379807692308,146.57402093827176L192.50528846153847,146.671584500282L193.58677884615383,146.74644676787656L194.66826923076923,146.666325671975L195.74975961538462,146.67603710869432L196.83124999999998,146.7015020253719L197.9127403846154,146.7795544185638L198.99423076923077,146.82867967275104L200.07572115384616,146.82090188559897L201.15721153846155,146.82065445526797L202.23870192307692,146.8668315499914L203.3201923076923,146.9784559289703L204.40168269230767,147.03964873846292L205.48317307692307,146.99295554346622L206.5646634615385,146.99276003481248L207.64615384615385,146.9565243231044L208.72764423076924,146.92071606465583L209.8091346153846,146.987753099079L210.890625,147.09075079176864L211.9721153846154,147.0638691675583L213.05360576923076,147.00668153577104L214.13509615384615,147.0739701332357L215.2165865384615,147.06896156000258L216.29807692307693,147.11255302339936L217.37956730769233,147.13254952890682L218.4610576923077,147.1439119962633L219.54254807692308,147.10029753052797L220.62403846153845,147.0991770382326L221.70552884615384,147.15134696329014L222.78701923076923,147.18457348582234L223.8685096153846,147.0999968224682L224.95000000000002,147.16144260012612L226.03149038461538,147.22401560139912L227.11298076923077,147.24184749736204L228.19447115384617,147.2471718044371L229.27596153846153,147.30102556607713L230.35745192307692,147.29445328189806L231.4389423076923,147.3625604759548L232.52043269230768,147.30895583657863L233.6019230769231,147.2421419110526L234.68341346153846,147.2930507427279L235.76490384615386,147.29368591746785L236.84639423076922,147.25867048077137L237.9278846153846,147.31823620119488L239.009375,147.25428441668672L240.09086538461537,147.32245923673491L241.17235576923076,147.33279341080555L242.25384615384615,147.4106752290377L243.33533653846155,147.40835970173725L244.41682692307694,147.2759265316889L245.4983173076923,147.35178973616888L246.5798076923077,147.4040531806957L247.66129807692306,147.40061483982228L248.74278846153845,147.42334682191304L249.82427884615385,147.44656421394694L250.90576923076924,147.54358581188558L251.98725961538463,147.54640871987073L253.06875,147.5094962817748L254.1502403846154,147.38605156417148L255.23173076923078,147.4356585852829L256.31322115384614,147.44477883927115L257.39471153846154,147.5143788953823L258.4762019230769,147.5241861581923L259.5576923076923,147.48656019578337L260.6391826923077,147.55957755727468L261.7206730769231,147.56403395702182L262.80216346153844,147.64378991044788L263.88365384615383,147.62142781024895L264.9651442307692,147.6512498158099" style="fill: none;" fill="none"></path></g></g></g></g><g opacity="0.2"><g><g><g><path stroke="rgb(51, 187, 238)" stroke-width="2px" d="M21.629807692307693,29.05660475217377L22.71129807692308,31.837468853363617L23.792788461538464,62.7070689384754L24.874278846153846,82.02159498288081L25.95576923076923,92.32576913100023L27.037259615384617,99.53775208271468L28.118750000000002,105.26472203548138L29.200240384615388,109.61032078357843L30.28173076923077,113.20032288936468L31.363221153846155,116.75615915426842L32.44471153846154,119.77068595702832L33.526201923076925,122.42457648424002L34.60769230769231,124.2490891951781L35.68918269230769,125.64865107261218L36.77067307692308,127.82848041332684L37.85216346153846,128.5975648531547L38.933653846153845,129.6263522895483L40.01514423076923,130.39755890690364L41.096634615384616,131.6979688360141L42.178125,131.85727214125487L43.25961538461539,132.50199616643098L44.341105769230765,133.28168540734512L45.42259615384616,134.18199183390692L46.504086538461536,134.11834273888513L47.58557692307693,134.86456812115816L48.66706730769231,134.77071350125166L49.74855769230769,135.8675323495498L50.83004807692308,136.10368850827217L51.91153846153846,136.65685660105487L52.99302884615385,136.82937989555873L54.07451923076923,136.66051056064092L55.15600961538461,137.45709809660912L56.237500000000004,137.9449473504837L57.31899038461538,137.93882630880063L58.400480769230775,136.4892370379888L59.48197115384615,138.30793506365558L60.56346153846154,139.11955841000264L61.644951923076924,139.07830579464252L62.72644230769231,139.2504557806712L63.807932692307695,139.35796253497784L64.88942307692308,139.52957487564822L65.97091346153846,139.458080216096L67.05240384615385,139.763821886136L68.13389423076923,140.12103549104472L69.21538461538462,140.22253887699202L70.296875,140.4440548511652L71.37836538461538,140.21274967377002L72.45985576923076,140.4354342657786L73.54134615384616,141.1373739013305L74.62283653846154,141.15421133087233L75.70432692307692,141.55367777439264L76.7858173076923,141.2575021340297L77.86730769230769,141.20484332167186L78.94879807692308,141.84137890659846L80.03028846153846,141.6432312314327L81.11177884615384,141.81219186461888L82.19326923076923,141.720246392947L83.27475961538461,142.05046411431752L84.35625,142.26389511961204L85.43774038461538,142.07245888159827L86.51923076923077,142.23466750062428L87.60072115384615,142.50407043099403L88.68221153846153,142.18619420665962L89.76370192307692,142.7520040663389L90.84519230769232,142.81119374816234L91.9266826923077,142.72557828976556L93.00817307692307,143.07722675800323L94.08966346153845,142.78323416068002L95.17115384615386,143.40566111986453L96.25264423076923,142.9097958780252L97.33413461538461,143.472316971192L98.41562499999999,143.43597214497052L99.49711538461538,143.22130962747795L100.57860576923078,143.44624015688896L101.66009615384615,143.63186982503305L102.74158653846153,143.66836884388556L103.82307692307693,143.7369318145972L104.9045673076923,143.76235533906862L105.9860576923077,143.92192036601213L107.06754807692307,143.87498291180685L108.14903846153847,143.94085562687653L109.23052884615385,143.96390742522019L110.31201923076922,144.06880710675165L111.39350961538462,144.1479343015414L112.47500000000001,144.3387497113301L113.55649038461539,144.3723008105388L114.63798076923077,144.29296667300738L115.71947115384614,144.50482126153432L116.80096153846155,144.20487195941118L117.88245192307693,144.4152008524308L118.9639423076923,144.17338217221774L120.04543269230768,144.49067205878404L121.12692307692308,144.50238258334306L122.20841346153847,144.80049577584634L123.28990384615385,144.6973753961233L124.37139423076923,144.76325825544504L125.45288461538462,145.17781325945487L126.534375,144.5954074034324L127.61586538461539,144.70357150527147L128.69735576923077,144.47320771446596L129.77884615384616,144.704115237181L130.86033653846155,145.0952694805769L131.94182692307692,145.01471803280023L133.0233173076923,145.096466502318L134.1048076923077,145.22645291915308L135.1862980769231,145.32950634681262L136.26778846153846,145.13520334317133L137.34927884615385,145.30605486493843L138.43076923076924,145.12347050125783L139.5122596153846,145.41784858015868L140.59375,145.55402704844107L141.6752403846154,145.49624335995088L142.75673076923076,145.45347519333546L143.83822115384615,145.5586507985225L144.9197115384615,145.48504613454526L146.00120192307693,145.52379514850102L147.08269230769233,145.43622387831027L148.1641826923077,145.4304010776373L149.24567307692308,145.70670209939664L150.32716346153845,145.66057415650442L151.40865384615384,145.95438009959L152.49014423076923,145.76351193969066L153.5716346153846,146.0111108147181L154.65312500000002,145.83323947053688L155.73461538461538,145.74079895936526L156.81610576923077,145.99677698658064L157.89759615384617,145.89108199568895L158.97908653846153,145.98156060851537L160.06057692307692,146.12172171015007L161.1420673076923,146.30703487763037L162.22355769230768,146.0842346411485L163.3050480769231,146.0568593625839L164.38653846153846,146.1703471678954L165.46802884615386,146.21635135091267L166.54951923076922,146.09369314175385L167.6310096153846,146.11862568442638L168.7125,146.38408858730241L169.79399038461537,146.21824832604483L170.87548076923076,146.12612634438736L171.95697115384615,145.9505273126639L173.03846153846155,146.22190228563088L174.11995192307694,146.3473278467472L175.2014423076923,146.07239427016333L176.2829326923077,146.38828627879803L177.36442307692306,146.3031962926571L178.44591346153845,146.50530124054507L179.52740384615385,146.33687723829195L180.60889423076924,146.52750497941787L181.69038461538463,146.5692962545615L182.771875,146.5038709010069L183.8533653846154,146.6614933036841L184.93485576923078,146.57324135418122L186.01634615384614,146.67685474455357L187.09783653846154,146.64652241651828L188.1793269230769,146.76298248767853L189.26081730769232,146.50921489298344L190.3423076923077,146.6592138902499L191.42379807692308,146.48911304313404L192.50528846153847,146.81792984329738L193.58677884615383,146.8587401692684L194.66826923076923,146.5461440281226L195.74975961538462,146.69060426377334L196.83124999999998,146.73969940038828L197.9127403846154,146.8966330083517L198.99423076923077,146.90236755403188L200.07572115384616,146.80923520487087L201.15721153846155,146.82028330977147L202.23870192307692,146.93609719207655L203.3201923076923,147.14589249743864L204.40168269230767,147.13143795270187L205.48317307692307,146.9229157509712L206.5646634615385,146.9924667718319L207.64615384615385,146.90217075554224L208.72764423076924,146.86700367698302L209.8091346153846,147.0883086507137L210.890625,147.24524733080312L211.9721153846154,147.02354673124276L213.05360576923076,146.92090008809015L214.13509615384615,147.17490302943267L215.2165865384615,147.0614487001529L216.29807692307693,147.17794021849448L217.37956730769233,147.16254428716806L218.4610576923077,147.16095569729805L219.54254807692308,147.03487583192495L220.62403846153845,147.0974962997895L221.70552884615384,147.22960185087643L222.78701923076923,147.2344132696207L223.8685096153846,146.97313182743696L224.95000000000002,147.253611266613L226.03149038461538,147.3178751033086L227.11298076923077,147.26859534130648L228.19447115384617,147.25515826504963L229.27596153846153,147.38180620853717L230.35745192307692,147.28459485562948L231.4389423076923,147.46472126703995L232.52043269230768,147.22854887751433L233.6019230769231,147.14192102276363L234.68341346153846,147.36941399024084L235.76490384615386,147.29463867957776L236.84639423076922,147.20614732572665L237.9278846153846,147.40758478183014L239.009375,147.1583567399245L240.09086538461537,147.42472146680723L241.17235576923076,147.34829467191145L242.25384615384615,147.527497956386L243.33533653846155,147.40488641078656L244.41682692307694,147.0772767766164L245.4983173076923,147.46558454288885L246.5798076923077,147.48244834748598L247.66129807692306,147.39545732851212L248.74278846153845,147.45744479504916L249.82427884615385,147.48139030199783L250.90576923076924,147.6891182087935L251.98725961538463,147.55064308184845L253.06875,147.45412762463093L254.1502403846154,147.20088448776647L255.23173076923078,147.51006911695004L256.31322115384614,147.4584592202535L257.39471153846154,147.61877897954903L258.4762019230769,147.53889705240726L259.5576923076923,147.43012125216998L260.6391826923077,147.66910359951166L261.7206730769231,147.57071855664253L262.80216346153844,147.76342384058697L263.88365384615383,147.58788465995056L264.9651442307692,147.69598282415134" style="fill: none;" fill="none"></path></g></g></g></g></g></g><g transform="translate(48, 177)" clip-path="url(#clip_1)"><clipPath id="clip_1"><rect width="281" height="23"></rect></clipPath><g><g><line x1="0" y1="0" x2="0" y2="5" style="visibility: inherit;" fill="rgb(0, 0, 0)" stroke="rgb(204, 204, 204)" stroke-width="1px"></line><line x1="21.629807692307693" y1="0" x2="21.629807692307693" y2="5" style="visibility: inherit;" fill="rgb(0, 0, 0)" stroke="rgb(204, 204, 204)" stroke-width="1px"></line><line x1="43.25961538461539" y1="0" x2="43.25961538461539" y2="5" style="visibility: inherit;" fill="rgb(0, 0, 0)" stroke="rgb(204, 204, 204)" stroke-width="1px"></line><line x1="64.88942307692308" y1="0" x2="64.88942307692308" y2="5" style="visibility: inherit;" fill="rgb(0, 0, 0)" stroke="rgb(204, 204, 204)" stroke-width="1px"></line><line x1="86.51923076923077" y1="0" x2="86.51923076923077" y2="5" style="visibility: inherit;" fill="rgb(0, 0, 0)" stroke="rgb(204, 204, 204)" stroke-width="1px"></line><line x1="108.14903846153847" y1="0" x2="108.14903846153847" y2="5" style="visibility: inherit;" fill="rgb(0, 0, 0)" stroke="rgb(204, 204, 204)" stroke-width="1px"></line><line x1="129.77884615384616" y1="0" x2="129.77884615384616" y2="5" style="visibility: inherit;" fill="rgb(0, 0, 0)" stroke="rgb(204, 204, 204)" stroke-width="1px"></line><line x1="151.40865384615384" y1="0" x2="151.40865384615384" y2="5" style="visibility: inherit;" fill="rgb(0, 0, 0)" stroke="rgb(204, 204, 204)" stroke-width="1px"></line><line x1="173.03846153846155" y1="0" x2="173.03846153846155" y2="5" style="visibility: inherit;" fill="rgb(0, 0, 0)" stroke="rgb(204, 204, 204)" stroke-width="1px"></line><line x1="194.66826923076923" y1="0" x2="194.66826923076923" y2="5" style="visibility: inherit;" fill="rgb(0, 0, 0)" stroke="rgb(204, 204, 204)" stroke-width="1px"></line><line x1="216.29807692307693" y1="0" x2="216.29807692307693" y2="5" style="visibility: inherit;" fill="rgb(0, 0, 0)" stroke="rgb(204, 204, 204)" stroke-width="1px"></line><line x1="237.9278846153846" y1="0" x2="237.9278846153846" y2="5" style="visibility: inherit;" fill="rgb(0, 0, 0)" stroke="rgb(204, 204, 204)" stroke-width="1px"></line><line x1="259.5576923076923" y1="0" x2="259.5576923076923" y2="5" style="visibility: inherit;" fill="rgb(0, 0, 0)" stroke="rgb(204, 204, 204)" stroke-width="1px"></line><line x1="281.1875" y1="0" x2="281.1875" y2="5" style="visibility: inherit;" fill="rgb(0, 0, 0)" stroke="rgb(204, 204, 204)" stroke-width="1px"></line></g><g transform="translate(0, 8)"><text x="0" y="0" dx="0em" dy="0.95em" style="text-anchor: middle; visibility: hidden; font-family: &quot;Helvetica Neue&quot;, sans-serif; font-size: 12px; font-weight: 200;" fill="rgb(50, 49, 63)" stroke="none" stroke-width="1px">-20</text><text x="21.629807692307693" y="0" dx="0em" dy="0.95em" style="text-anchor: middle; visibility: inherit; font-family: &quot;Helvetica Neue&quot;, sans-serif; font-size: 12px; font-weight: 200;" fill="rgb(50, 49, 63)" stroke="none" stroke-width="1px">0</text><text x="43.25961538461539" y="0" dx="0em" dy="0.95em" style="text-anchor: middle; visibility: hidden; font-family: &quot;Helvetica Neue&quot;, sans-serif; font-size: 12px; font-weight: 200;" fill="rgb(50, 49, 63)" stroke="none" stroke-width="1px">20</text><text x="64.88942307692308" y="0" dx="0em" dy="0.95em" style="text-anchor: middle; visibility: inherit; font-family: &quot;Helvetica Neue&quot;, sans-serif; font-size: 12px; font-weight: 200;" fill="rgb(50, 49, 63)" stroke="none" stroke-width="1px">40</text><text x="86.51923076923077" y="0" dx="0em" dy="0.95em" style="text-anchor: middle; visibility: hidden; font-family: &quot;Helvetica Neue&quot;, sans-serif; font-size: 12px; font-weight: 200;" fill="rgb(50, 49, 63)" stroke="none" stroke-width="1px">60</text><text x="108.14903846153847" y="0" dx="0em" dy="0.95em" style="text-anchor: middle; visibility: inherit; font-family: &quot;Helvetica Neue&quot;, sans-serif; font-size: 12px; font-weight: 200;" fill="rgb(50, 49, 63)" stroke="none" stroke-width="1px">80</text><text x="129.77884615384616" y="0" dx="0em" dy="0.95em" style="text-anchor: middle; visibility: hidden; font-family: &quot;Helvetica Neue&quot;, sans-serif; font-size: 12px; font-weight: 200;" fill="rgb(50, 49, 63)" stroke="none" stroke-width="1px">100</text><text x="151.40865384615384" y="0" dx="0em" dy="0.95em" style="text-anchor: middle; visibility: inherit; font-family: &quot;Helvetica Neue&quot;, sans-serif; font-size: 12px; font-weight: 200;" fill="rgb(50, 49, 63)" stroke="none" stroke-width="1px">120</text><text x="173.03846153846155" y="0" dx="0em" dy="0.95em" style="text-anchor: middle; visibility: hidden; font-family: &quot;Helvetica Neue&quot;, sans-serif; font-size: 12px; font-weight: 200;" fill="rgb(50, 49, 63)" stroke="none" stroke-width="1px">140</text><text x="194.66826923076923" y="0" dx="0em" dy="0.95em" style="text-anchor: middle; visibility: inherit; font-family: &quot;Helvetica Neue&quot;, sans-serif; font-size: 12px; font-weight: 200;" fill="rgb(50, 49, 63)" stroke="none" stroke-width="1px">160</text><text x="216.29807692307693" y="0" dx="0em" dy="0.95em" style="text-anchor: middle; visibility: hidden; font-family: &quot;Helvetica Neue&quot;, sans-serif; font-size: 12px; font-weight: 200;" fill="rgb(50, 49, 63)" stroke="none" stroke-width="1px">180</text><text x="237.9278846153846" y="0" dx="0em" dy="0.95em" style="text-anchor: middle; visibility: inherit; font-family: &quot;Helvetica Neue&quot;, sans-serif; font-size: 12px; font-weight: 200;" fill="rgb(50, 49, 63)" stroke="none" stroke-width="1px">200</text><text x="259.5576923076923" y="0" dx="0em" dy="0.95em" style="text-anchor: middle; visibility: hidden; font-family: &quot;Helvetica Neue&quot;, sans-serif; font-size: 12px; font-weight: 200;" fill="rgb(50, 49, 63)" stroke="none" stroke-width="1px">220</text><text x="281.1875" y="0" dx="0em" dy="0.95em" style="text-anchor: middle; visibility: hidden; font-family: &quot;Helvetica Neue&quot;, sans-serif; font-size: 12px; font-weight: 200;" fill="rgb(50, 49, 63)" stroke="none" stroke-width="1px">240</text></g><line x1="0" y1="0" x2="281.1875" y2="0" fill="rgb(0, 0, 0)" stroke="rgb(204, 204, 204)" stroke-width="1px"></line></g></g></g></g></svg>